<svg id="Capa_1" xmlns="http://www.w3.org/2000/svg" width="533.333" height="533.333" viewBox="0 0 533.333 533.333"><path d="M227.607 426.126c0 39.1-24.16 69.996-92.582 72.487-40.096-22.805-73.693-55.703-97.348-95.242 12.34-30.466 50.88-53.67 94.957-53.183 12.51.13 24.172 2.142 34.763 5.572 29.118 20.24 52.604 32.89 58.5 55.96 1.102 4.67 1.71 9.485 1.71 14.406zM266.667 0C189.614 0 120.21 32.692 71.527 84.947c19.237-10.652 41.948-17 66.096-17h133.56L241.34 99.272H206.28c24.738 14.174 37.892 43.36 37.892 75.528 0 29.527-16.362 53.323-39.47 71.384-22.54 17.605-26.818 24.983-26.818 39.966 0 12.78 26.938 31.82 39.323 41.112 43.135 32.35 51.863 52.7 51.863 93.163 0 41-35.903 81.824-96.804 95.696 29.348 11.113 61.16 17.212 94.4 17.212 147.275 0 266.667-119.39 266.667-266.666C533.333 119.39 413.943 0 266.667 0zM400 200v66.667h-33.333V200H300v-33.333h66.667V100H400v66.667h66.667V200H400zm-209.496-23.192c6.21 47.28-14.503 77.704-50.486 76.632-36.003-1.084-70.21-34.11-76.427-81.375C57.38 124.78 81.518 88.6 117.514 89.67c35.984 1.08 66.78 39.867 72.99 87.138zm-75.46 157.602c-38.896 0-71.94 13.42-95.23 33.263C7.054 336.518 0 302.417 0 266.667c0-29.566 4.82-58.004 13.704-84.582 3.84 51.793 40.288 91.768 100.506 91.768 4.434 0 8.73-.23 12.955-.533-4.14 7.933-7.095 16.767-7.095 26.032 0 15.61 8.587 24.517 19.202 34.842-8.022 0-15.766.216-24.228.216z" fill="#9e9e9e" fill-rule="evenodd"/></svg>