<svg id="Capa_1" xmlns="http://www.w3.org/2000/svg" width="512" height="512" viewBox="0 0 512 512"><path d="M256 0C114.615 0 0 114.615 0 256s114.615 256 256 256 256-114.615 256-256S397.385 0 256 0zm147.12 180.544c.147 3.254.222 6.528.222 9.82 0 100.31-76.354 215.98-215.98 215.98-42.867 0-82.767-12.567-116.362-34.105 5.938.7 11.98 1.06 18.108 1.06 35.565 0 68.295-12.137 94.275-32.495-33.217-.61-61.25-22.562-70.912-52.717 4.638.885 9.393 1.36 14.284 1.36 6.923 0 13.63-.927 20-2.66-34.727-6.978-60.894-37.657-60.894-74.435 0-.32 0-.64.008-.955 10.235 5.685 21.94 9.1 34.382 9.494-20.37-13.61-33.77-36.846-33.77-63.184 0-13.91 3.744-26.952 10.278-38.162 37.44 45.927 93.374 76.146 156.462 79.314-1.294-5.56-1.965-11.35-1.965-17.302 0-41.92 33.99-75.906 75.91-75.906 21.83 0 41.56 9.218 55.407 23.97 17.29-3.404 33.537-9.72 48.207-18.42-5.67 17.727-17.706 32.603-33.378 41.997 15.355-1.835 29.984-5.917 43.598-11.953-10.176 15.224-23.045 28.593-37.88 39.297z" fill="#9e9e9e" fill-rule="evenodd"/></svg>